<svg width="40" height="40" viewBox="0 0 20 20" fill="none" xmlns="http://www.w3.org/2000/svg">
<rect width="40" height="40" rx="2" fill="#F44336"/>
<path d="M10 12.9667C10.1111 12.9667 10.2084 12.9278 10.292 12.85C10.3751 12.7722 10.4167 12.6778 10.4167 12.5667C10.4167 12.4444 10.3751 12.3444 10.292 12.2667C10.2084 12.1889 10.1111 12.15 10 12.15C9.88889 12.15 9.79156 12.1889 9.708 12.2667C9.62489 12.3444 9.58333 12.4444 9.58333 12.5667C9.58333 12.6778 9.62489 12.7722 9.708 12.85C9.79156 12.9278 9.88889 12.9667 10 12.9667ZM10 10.7667C10.1 10.7667 10.1807 10.736 10.242 10.6747C10.3029 10.6138 10.3333 10.5333 10.3333 10.4333V7.1C10.3333 7.01111 10.3 6.93333 10.2333 6.86667C10.1667 6.8 10.0889 6.76667 10 6.76667C9.9 6.76667 9.81933 6.8 9.758 6.86667C9.69711 6.93333 9.66667 7.01111 9.66667 7.1V10.4333C9.66667 10.5333 9.7 10.6138 9.76667 10.6747C9.83333 10.736 9.91111 10.7667 10 10.7667ZM10 16C9.16667 16 8.38622 15.8418 7.65867 15.5253C6.93067 15.2084 6.29733 14.7804 5.75867 14.2413C5.21956 13.7027 4.79156 13.0693 4.47467 12.3413C4.15822 11.6138 4 10.8333 4 10C4 9.16667 4.15822 8.386 4.47467 7.658C4.79156 6.93044 5.21956 6.29711 5.75867 5.758C6.29733 5.21933 6.93067 4.79156 7.65867 4.47467C8.38622 4.15822 9.16667 4 10 4C10.8333 4 11.614 4.15822 12.342 4.47467C13.0696 4.79156 13.7029 5.21933 14.242 5.758C14.7807 6.29711 15.2084 6.93044 15.5253 7.658C15.8418 8.386 16 9.16667 16 10C16 10.8333 15.8418 11.6138 15.5253 12.3413C15.2084 13.0693 14.7807 13.7027 14.242 14.2413C13.7029 14.7804 13.0696 15.2084 12.342 15.5253C11.614 15.8418 10.8333 16 10 16ZM10 15.3333C11.4889 15.3333 12.75 14.8167 13.7833 13.7833C14.8167 12.75 15.3333 11.4889 15.3333 10C15.3333 8.51111 14.8167 7.25 13.7833 6.21667C12.75 5.18333 11.4889 4.66667 10 4.66667C8.51111 4.66667 7.25 5.18333 6.21667 6.21667C5.18333 7.25 4.66667 8.51111 4.66667 10C4.66667 11.4889 5.18333 12.75 6.21667 13.7833C7.25 14.8167 8.51111 15.3333 10 15.3333Z" fill="#FEFEFE"/>
</svg>