<svg width="40" height="40" viewBox="0 0 20 20" fill="none" xmlns="http://www.w3.org/2000/svg">
<path fill-rule="evenodd" clip-rule="evenodd" d="M14.3302 3.07782C12.4123 -0.210844 7.58769 -0.210828 5.66984 3.07782L0.663553 11.6624C-1.21016 14.8754 1.0891 19.0113 4.99371 19.0113H15.0063C18.9109 19.0113 21.2102 14.8754 19.3364 11.6624L14.3302 3.07782Z" fill="#FFCA28"/>
<path d="M4.53956 14.7993C4.33956 14.7993 4.18689 14.7105 4.08156 14.5327C3.97578 14.3549 3.97289 14.1771 4.07289 13.9993L9.32289 4.93268C9.42289 4.7549 9.57845 4.66602 9.78956 4.66602C10.0007 4.66602 10.1562 4.7549 10.2562 4.93268L15.5062 13.9993C15.6062 14.1771 15.6033 14.3549 15.4976 14.5327C15.3922 14.7105 15.2396 14.7993 15.0396 14.7993H4.53956ZM9.78956 8.38268C9.68956 8.38268 9.60889 8.41602 9.54756 8.48268C9.48667 8.54935 9.45623 8.62713 9.45623 8.71602V11.3827C9.45623 11.4827 9.48956 11.5633 9.55623 11.6247C9.62289 11.6856 9.70067 11.716 9.78956 11.716C9.88956 11.716 9.97023 11.6856 10.0316 11.6247C10.0924 11.5633 10.1229 11.4827 10.1229 11.3827V8.71602C10.1229 8.62713 10.0896 8.54935 10.0229 8.48268C9.95623 8.41602 9.87845 8.38268 9.78956 8.38268ZM9.78956 13.216C9.90067 13.216 9.998 13.1745 10.0816 13.0913C10.1647 13.0078 10.2062 12.9105 10.2062 12.7993C10.2062 12.6882 10.1647 12.5909 10.0816 12.5073C9.998 12.4242 9.90067 12.3827 9.78956 12.3827C9.67845 12.3827 9.58112 12.4242 9.49756 12.5073C9.41445 12.5909 9.37289 12.6882 9.37289 12.7993C9.37289 12.9105 9.41445 13.0078 9.49756 13.0913C9.58112 13.1745 9.67845 13.216 9.78956 13.216ZM4.75623 14.1327H14.8229L9.78956 5.46602L4.75623 14.1327Z" fill="#060606"/>
</svg>