<svg width="42" height="40" viewBox="0 0 21 20" fill="none" xmlns="http://www.w3.org/2000/svg">
<rect x="0.13562" width="40" height="40" rx="0" fill="#2196F3"/>
<path d="M10.1486 13.168C10.2486 13.168 10.3293 13.1375 10.3906 13.0766C10.4515 13.0153 10.482 12.9346 10.482 12.8346V9.81797C10.482 9.72908 10.4486 9.65397 10.382 9.59264C10.3153 9.53175 10.2375 9.5013 10.1486 9.5013C10.0486 9.5013 9.96795 9.53464 9.90662 9.6013C9.84573 9.66797 9.81529 9.74575 9.81529 9.83464V12.8513C9.81529 12.9402 9.84862 13.0153 9.91529 13.0766C9.98195 13.1375 10.0597 13.168 10.1486 13.168ZM10.1486 8.5513C10.2597 8.5513 10.3571 8.51241 10.4406 8.43464C10.5237 8.35686 10.5653 8.25686 10.5653 8.13464C10.5653 8.02352 10.5237 7.92908 10.4406 7.8513C10.3571 7.77352 10.2597 7.73464 10.1486 7.73464C10.0375 7.73464 9.94018 7.77352 9.85662 7.8513C9.77351 7.92908 9.73195 8.02352 9.73195 8.13464C9.73195 8.25686 9.77351 8.35686 9.85662 8.43464C9.94018 8.51241 10.0375 8.5513 10.1486 8.5513ZM10.1486 16.168C9.31529 16.168 8.53195 16.0124 7.79862 15.7013C7.06529 15.3902 6.42929 14.9653 5.89062 14.4266C5.35151 13.8875 4.9264 13.2513 4.61529 12.518C4.30418 11.7846 4.14862 11.0013 4.14862 10.168C4.14862 9.33464 4.30418 8.5513 4.61529 7.81797C4.9264 7.08464 5.35151 6.44841 5.89062 5.9093C6.42929 5.37064 7.06529 4.94575 7.79862 4.63464C8.53195 4.32352 9.31529 4.16797 10.1486 4.16797C10.982 4.16797 11.7653 4.32352 12.4986 4.63464C13.232 4.94575 13.8682 5.37064 14.4073 5.9093C14.946 6.44841 15.3708 7.08464 15.682 7.81797C15.9931 8.5513 16.1486 9.33464 16.1486 10.168C16.1486 11.0013 15.9931 11.7846 15.682 12.518C15.3708 13.2513 14.946 13.8875 14.4073 14.4266C13.8682 14.9653 13.232 15.3902 12.4986 15.7013C11.7653 16.0124 10.982 16.168 10.1486 16.168ZM10.1486 15.5013C11.6264 15.5013 12.8848 14.982 13.924 13.9433C14.9626 12.9042 15.482 11.6457 15.482 10.168C15.482 8.69019 14.9626 7.43175 13.924 6.39264C12.8848 5.35397 11.6264 4.83464 10.1486 4.83464C8.67084 4.83464 7.41262 5.35397 6.37395 6.39264C5.33484 7.43175 4.81529 8.69019 4.81529 10.168C4.81529 11.6457 5.33484 12.9042 6.37395 13.9433C7.41262 14.982 8.67084 15.5013 10.1486 15.5013Z" fill="#FEFEFE"/>
</svg>
